<?xml version="1.0" encoding="iso-8859-1"?>
<!-- Uploaded to: SVG Repo, www.svgrepo.com, Generator: SVG Repo Mixer Tools -->
<svg fill="#000000" height="800px" width="800px" version="1.1" id="Layer_1" xmlns="http://www.w3.org/2000/svg" xmlns:xlink="http://www.w3.org/1999/xlink" 
	 viewBox="0 0 512 512" xml:space="preserve">
<g>
	<g>
		<path d="M472.878,177.59c0-5.77-4.679-10.449-10.449-10.449h-35.821c-4.123-21.933-12.555-43.053-24.674-61.852
			c15.26-9.631,25.424-26.631,25.424-45.971c0-5.77-4.679-10.449-10.449-10.449h-75.114c-0.098-0.067-0.189-0.14-0.29-0.204
			l-4.581-2.886c-0.24-0.153-0.488-0.294-0.741-0.425c-9.84-5.127-20.14-9.261-30.747-12.401c3.136-6.863,4.899-14.479,4.899-22.504
			C310.335,4.678,305.656,0,299.886,0h-87.771c-5.77,0-10.449,4.678-10.449,10.449c0,8.045,1.771,15.679,4.923,22.554
			c-12.572,3.74-24.68,8.897-36.141,15.421c-0.713,0.405-1.351,0.889-1.928,1.422H95.092c-5.77,0-10.449,4.679-10.449,10.449
			c0,19.238,10.058,36.159,25.182,45.817c-11.799,18.525-20.034,39.221-24.115,60.763H49.571c-5.77,0-10.449,4.679-10.449,10.449
			c0,27.292,20.228,49.939,46.477,53.759c3.448,18.656,9.841,36.353,19.087,52.821h-9.594c-5.77,0-10.449,4.679-10.449,10.449
			c0,29.96,24.374,54.335,54.335,54.335c7.729,0,15.08-1.633,21.743-4.555c6.765,4.465,13.796,8.43,21.062,11.883l-36.707,91.202
			h-41.885c-5.77,0-10.449,4.679-10.449,10.449v43.886c0,5.77,4.679,10.449,10.449,10.449h305.618
			c5.77,0,10.449-4.679,10.449-10.449v-43.886c0-5.77-4.679-10.449-10.449-10.449h-41.504l-36.723-91.244
			c7.199-3.425,14.167-7.347,20.865-11.763c6.618,2.876,13.912,4.478,21.576,4.478c29.96,0,54.335-24.374,54.335-54.335
			c0-5.77-4.679-10.449-10.449-10.449h-9.376c9.14-16.359,15.621-34.195,19.074-52.581
			C452.756,227.415,472.878,204.81,472.878,177.59z M404.788,69.767c-4.398,13.335-16.976,22.988-31.766,22.988
			s-27.367-9.652-31.765-22.988H404.788z M287.765,20.898C283.367,34.234,270.789,43.886,256,43.886s-27.367-9.652-31.765-22.988
			H287.765z M107.213,70.745h63.53c-4.398,13.336-16.975,22.988-31.765,22.988S111.611,84.081,107.213,70.745z M129.749,113.831
			c3.002,0.516,6.081,0.8,9.228,0.8c29.96,0,54.335-24.374,54.335-54.335c0-0.022-0.003-0.042-0.003-0.064
			c8.57-3.881,17.468-6.967,26.622-9.195c9.603,8.542,22.238,13.746,36.07,13.746c13.862,0,26.521-5.224,36.13-13.799
			c9.125,2.208,18.015,5.277,26.578,9.132c0.43,29.591,24.622,53.535,54.315,53.535c3.027,0,5.992-0.26,8.886-0.739
			c11.239,16.354,19.221,34.883,23.384,54.227h-25.786C365.231,112.352,315.33,71.79,256.133,71.79
			c-59.103,0-108.934,40.431-123.302,95.086H107.03C111.131,147.973,118.88,129.899,129.749,113.831z M214.828,329.88l3.558-8.84
			c11.933,3.706,24.61,5.705,37.747,5.705c13.174,0,25.887-2.008,37.85-5.735l3.569,8.87H214.828z M287.765,350.777
			c-4.398,13.336-16.975,22.988-31.765,22.988s-27.367-9.652-31.765-22.988H287.765z M188.552,116.916
			c15.874-13.05,35.571-21.607,57.133-23.715v72.111h-0.001c-2.15,0.664-4.212,1.529-6.168,2.568L188.552,116.916z M224.74,182.66
			c-1.038,1.953-1.902,4.011-2.563,6.159h-72.11c2.108-21.557,10.662-41.253,23.708-57.125L224.74,182.66z M270.754,199.408
			c-0.018,1.871-0.392,3.656-1.053,5.299l-3.76-9.34c-1.535-3.814-5.065-6.214-8.903-6.509c-0.061-0.005-0.623-0.034-0.845-0.033
			c-0.229-0.001-0.791,0.028-0.845,0.032c-3.84,0.293-7.375,2.695-8.91,6.51l-3.82,9.492c-0.716-1.724-1.116-3.611-1.116-5.591
			c0.002-8.067,6.564-14.629,14.631-14.629c8.019,0,14.545,6.487,14.621,14.487c-0.001,0.047-0.007,0.094-0.007,0.141
			S270.753,199.361,270.754,199.408z M286.146,301.537c-6.302,1.854-12.842,3.14-19.565,3.797v-52.409L286.146,301.537z
			 M245.684,253.215v52.119c-6.686-0.654-13.192-1.93-19.461-3.766L245.684,253.215z M206.846,293.743
			c-6.52-3.415-12.647-7.481-18.289-12.119l38.771-38.771L206.846,293.743z M285.135,243.055l38.571,38.571
			c-5.613,4.614-11.708,8.662-18.191,12.067L285.135,243.055z M272.747,167.879c-1.955-1.039-4.017-1.904-6.166-2.567v-72.11
			c21.561,2.108,41.258,10.664,57.131,23.713L272.747,167.879z M338.488,131.692c13.048,15.873,21.603,35.568,23.711,57.127h-72.11
			c-0.662-2.148-1.527-4.208-2.565-6.162L338.488,131.692z M93.458,210.761c-14.789,0-27.368-9.652-31.766-22.988h63.531
			C120.825,201.109,108.247,210.761,93.458,210.761z M129.969,217.53c3.64,25.263,14.713,48.151,30.926,66.374h-31.696
			c-11.03-16.502-18.586-34.591-22.515-53.88C115.488,227.813,123.451,223.455,129.969,217.53z M138.978,327.79
			c-14.789,0-27.368-9.652-31.766-22.988h63.531C166.345,318.138,153.767,327.79,138.978,327.79z M150.066,209.717h72.11v-0.001
			c0.662,2.149,1.528,4.211,2.567,6.166l-50.965,50.965C160.73,250.974,152.174,231.277,150.066,209.717z M179.088,330.964
			c5.654-6.189,9.885-13.69,12.208-21.982c2.518,1.494,5.091,2.904,7.717,4.226l-9.411,23.385
			C186.028,334.858,182.524,332.98,179.088,330.964z M344.777,447.216h-28.185c-5.77,0-10.449,4.679-10.449,10.449
			c0,5.77,4.679,10.449,10.449,10.449h81.768v22.988H113.64v-22.988h138.322c5.77,0,10.449-4.679,10.449-10.449
			c0-5.77-4.679-10.449-10.449-10.449h-84.359l33.562-83.388c2.3,0.767,4.618,1.486,6.955,2.158
			c9.176,17.055,27.195,28.677,47.88,28.677c20.653,0,38.65-11.585,47.839-28.597c2.474-0.706,4.928-1.466,7.36-2.279
			L344.777,447.216z M322.763,336.547l-9.412-23.387c2.513-1.267,4.978-2.617,7.393-4.043c2.343,8.284,6.594,15.772,12.263,21.946
			C329.657,333.023,326.242,334.854,322.763,336.547z M287.52,215.885c1.04-1.956,1.905-4.018,2.568-6.168h72.11
			c-2.108,21.56-10.664,41.258-23.715,57.132L287.52,215.885z M373.022,327.79c-14.789,0-27.367-9.652-31.765-22.988h63.531
			C400.39,318.138,387.812,327.79,373.022,327.79z M383.061,283.904H351.37c16.119-18.117,27.159-40.845,30.864-65.933
			c6.53,5.876,14.486,10.191,23.28,12.363C401.553,249.384,393.884,267.691,383.061,283.904z M386.778,188.039h63.531
			c-4.399,13.336-16.976,22.988-31.766,22.988S391.176,201.375,386.778,188.039z"/>
	</g>
</g>
<g>
	<g>
		<path d="M285.903,447.216h-0.138c-5.77,0-10.449,4.679-10.449,10.449c0,5.77,4.679,10.449,10.449,10.449h0.138
			c5.77,0,10.449-4.679,10.449-10.449C296.352,451.895,291.674,447.216,285.903,447.216z"/>
	</g>
</g>
</svg>